<svg xmlns="http://www.w3.org/2000/svg" xmlns:xlink="http://www.w3.org/1999/xlink" version="1.1" x="0px" y="0px" viewBox="378 594 36 45" enable-background="new 378 594 36 36" xml:space="preserve"><path fill="#000000" d="M403.021,618.218c-1.31-1.771-2.931-2.962-4.693-3.506c0.955-0.692,1.584-1.811,1.584-3.078  c0-2.101-1.709-3.81-3.811-3.81c-2.101,0-3.81,1.709-3.81,3.81c0,1.28,0.64,2.409,1.611,3.102c-1.738,0.553-3.336,1.733-4.628,3.483  c-0.246,0.332-0.177,0.804,0.156,1.049c0.135,0.1,0.291,0.146,0.445,0.146c0.229,0,0.457-0.105,0.604-0.305  c1.544-2.089,3.557-3.24,5.667-3.24c2.109,0,4.124,1.15,5.667,3.24c0.244,0.334,0.716,0.402,1.049,0.156  S403.268,618.551,403.021,618.218z M396.102,609.324c1.274,0,2.311,1.036,2.311,2.31s-1.036,2.311-2.311,2.311  c-1.273,0-2.31-1.036-2.31-2.311C393.792,610.36,394.828,609.324,396.102,609.324z"/><text x="378" y="645" fill="rgba(0,255,0,1)" font-size="5px" font-weight="bold" font-family="'Helvetica Neue', Helvetica, Arial-Unicode, Arial, Sans-serif">Created by Ash Ngu</text><text x="378" y="650" fill="#000000" font-size="5px" font-weight="bold" font-family="'Helvetica Neue', Helvetica, Arial-Unicode, Arial, Sans-serif">from the Noun Project</text></svg>
