<svg id="Layer_1" data-name="Layer 1" xmlns="http://www.w3.org/2000/svg" viewBox="0 0 1000 1000"><title>VacantLogo</title><path d="M499.52,984.57a53.81,53.81,0,0,1-48.4-29.91L21.82,96.08a28.47,28.47,0,0,1,9-36.4A28.42,28.42,0,0,1,66.35,61l434.4,273.12L932.13,61.67A29,29,0,0,1,976.85,96.8L547.91,954.66A53.81,53.81,0,0,1,499.52,984.57Zm-434-881.51,417.75,835.5a18.11,18.11,0,0,0,32.4,0l417.5-835L534.53,355.39l76.05,47.81A18,18,0,0,1,618,424.25L518,717.8a18,18,0,0,1-34.08,0L384,424.25a18,18,0,0,1,7.43-21L467,355.46Zm357.06,323L501,656.18l78.37-230.07L500.79,376.7Z"/></svg>